<?xml version="1.0" encoding="UTF-8"?>
<!DOCTYPE svg PUBLIC "-//W3C//DTD SVG 1.1//EN" "http://www.w3.org/Graphics/SVG/1.1/DTD/svg11.dtd">
<svg version="1.1" xmlns="http://www.w3.org/2000/svg" xmlns:xlink="http://www.w3.org/1999/xlink" x="0" y="0" width="300" height="150" viewBox="0, 0, 300, 150">
  <g id="Background">
    <rect x="0" y="0" width="300" height="150" fill="#000000" fill-opacity="0"/>
  </g>
  <defs>
    <linearGradient id="Gradient_1" gradientUnits="userSpaceOnUse" x1="366.892" y1="386.342" x2="372.688" y2="497.281" gradientTransform="matrix(-0.583, 0.065, -0.16, -0.251, 459.63, 169.433)">
      <stop offset="0" stop-color="#FFE900"/>
      <stop offset="1" stop-color="#FFE900" stop-opacity="0"/>
    </linearGradient>
    <linearGradient id="Gradient_2" gradientUnits="userSpaceOnUse" x1="134.624" y1="76.782" x2="150.245" y2="162.401" gradientTransform="matrix(1, 0, 0, 0.419, 0, 0)">
      <stop offset="0" stop-color="#FFE900"/>
      <stop offset="1" stop-color="#FFE900" stop-opacity="0"/>
    </linearGradient>
  </defs>
  <g id="People">
    <g>
      <path d="M150.001,30.909 C132.212,30.909 117.739,45.381 117.739,63.171 C117.739,80.96 132.212,95.433 150.001,95.433 C167.791,95.433 182.264,80.96 182.264,63.171 C182.264,45.381 167.791,30.909 150.001,30.909" fill="#ECC49C"/>
      <path d="M247.479,76.288 C243.782,70.04 239.242,65.464 234.102,62.21 C227.347,68.274 218.428,71.97 208.66,71.97 C201.058,71.97 193.976,69.721 188.024,65.871 C187.364,75.244 183.311,83.694 177.075,89.987 C182.526,93.535 187.088,98.367 190.713,104.497 C193.393,109.029 195.701,114.855 197.497,121.291 L258.03,121.291 C258.03,105.964 254.088,87.464 247.479,76.288" fill="#4976A1"/>
      <path d="M111.98,65.873 C106.027,69.723 98.945,71.97 91.343,71.97 C81.614,71.97 72.731,68.302 65.986,62.284 C60.289,65.891 55.335,71.09 51.433,78.205 C45.482,89.057 41.97,106.827 41.97,121.291 L102.434,121.291 C103.99,115.65 105.934,110.54 108.162,106.477 C112.024,99.435 116.981,93.956 122.979,90.041 C116.716,83.742 112.642,75.272 111.98,65.873" fill="#4976A1"/>
      <path d="M186.927,106.736 C183.41,100.788 179.015,96.232 173.701,93.006 C167.188,98.19 158.953,101.299 150.001,101.299 C141.113,101.299 132.932,98.232 126.441,93.114 C120.549,96.69 115.72,101.843 112.02,108.593 C106.873,117.978 103.201,134.073 102.855,148.421 L197.147,148.421 C196.79,133.13 192.774,116.622 186.927,106.736" fill="#4976A1"/>
      <path d="M208.66,1.579 C190.87,1.579 176.398,16.052 176.398,33.842 C176.398,34.484 176.423,35.122 176.459,35.755 C182.577,41.662 186.726,49.585 187.826,58.447 C193.453,63.218 200.725,66.104 208.66,66.104 C226.45,66.104 240.924,51.631 240.924,33.842 C240.924,16.052 226.45,1.579 208.66,1.579" fill="#ECC49C"/>
      <path d="M123.544,35.755 C123.58,35.122 123.605,34.484 123.605,33.842 C123.605,16.052 109.133,1.579 91.343,1.579 C73.553,1.579 59.081,16.052 59.081,33.842 C59.081,51.631 73.553,66.104 91.343,66.104 C99.279,66.104 106.552,63.218 112.177,58.447 C113.277,49.585 117.427,41.661 123.544,35.755" fill="#ECC49C"/>
    </g>
    <g>
      <g>
        <path d="M183.053,63.318 C183.053,81.739 168.255,96.671 150,96.671 C131.745,96.671 116.947,81.739 116.947,63.318 C116.947,44.898 131.745,29.965 150,29.965 C168.255,29.965 183.053,44.898 183.053,63.318 z" fill="#7BB500"/>
        <path d="M183.053,63.318 C183.053,81.739 168.255,96.671 150,96.671 C131.745,96.671 116.947,81.739 116.947,63.318 C116.947,44.898 131.745,29.965 150,29.965 C168.255,29.965 183.053,44.898 183.053,63.318 z" fill-opacity="0" stroke="#5F8E00" stroke-width="11.843"/>
      </g>
      <path d="M157.898,92.849 C166.104,90.631 172.621,85.172 176.523,78.144 C182.86,63.007 159.217,98.448 139.689,92.009 C145.366,94.11 151.672,94.533 157.898,92.849 z" fill="url(#Gradient_1)"/>
      <path d="M149.913,32.17 C132.921,32.17 119.132,46.451 119.132,64.048 C119.132,66.428 119.394,68.744 119.872,70.976 C136.764,38.165 154.963,58.818 178.428,52.043 C173.846,40.392 162.803,32.17 149.913,32.17 z" fill="url(#Gradient_2)"/>
      <path d="M144.541,82.004 L144.541,68.675 L131.207,68.675 L131.207,57.684 L144.541,57.684 L144.541,44.354 L155.143,44.354 L155.143,57.684 L168.518,57.684 L168.518,68.675 L155.143,68.675 L155.143,82.004 L144.541,82.004" fill="#FFFFFF" opacity="0.735"/>
      <path d="M145.426,81.033 L145.426,67.76 L132.169,67.76 L132.169,58.598 L145.426,58.598 L145.426,45.325 L154.264,45.325 L154.264,58.598 L167.556,58.598 L167.556,67.76 L154.264,67.76 L154.264,81.033 L145.426,81.033" fill="#FFFFFF"/>
    </g>
  </g>
</svg>
