<?xml version="1.0" encoding="UTF-8" standalone="no"?>
<svg viewBox="0 0 686.2125 517.475" xml:space="preserve" xmlns="http://www.w3.org/2000/svg"><defs><clipPath id="clipPath10633"><path d="m0,0h2287v1724.92h-2287v-1724.92z"></path></clipPath></defs><g transform="matrix(1.25,0,0,-1.25,0,517.475)"><g transform="scale(.24)"><g clip-path="url(#clipPath10633)"><path d="m12.5,12.5h2262.39v1699.92h-2262.39v-1699.92z" fill="#f47216" fill-rule="evenodd"></path><path d="m12.5,12.5h2262.39v1699.92h-2262.39v-1699.92z" fill="none" stroke="#231f20" stroke-width="25"></path><path d="m2225.61,1012.44c0-69.038-69.75-125.002-155.79-125.002h-1838.355c-86.039,0-155.7931,55.964-155.7931,125.002v487.5c0,69.03 69.7541,125 155.7931,125h1838.355c86.04,0 155.79-55.97 155.79-125v-487.5" fill="#231f20"></path><path d="m2169.39,1121.21c0-23.01-19.88-41.67-44.39-41.67l-977.46-135.587-971.255,135.587c-24.519,0-44.39,18.66-44.39,41.67v270.83c0,23.01 19.871,41.67 44.39,41.67l972.275,137.5 976.44-137.5c24.51,0 44.39-18.66 44.39-41.67v-270.83" fill="#f47216"></path><path d="m354.609,1125.46-59.953,256.78h53.516l37.891-176.38 46.636,176.38h62.184l44.824-179.36 39.203,179.36h52.203l-61.972-256.78h-55.848l-50.668,191.98-50.766-191.98h-57.25" fill="#231f20"></path><path d="m869.922,1125.46h-56.027l-22.059,58.34h-102.906l-21.282-58.34h-55.019l99.746,256.78h54.883l102.664-256.78zm-94.988,101.57-35.485,95.31-34.761-95.31h70.246" fill="#231f20"></path><path d="m897.918,1125.46v256.78h109.062c27.42,0 47.35-2.31 59.78-6.92s22.37-12.8 29.85-24.58c7.46-11.79 11.2-25.26 11.2-40.42 0-19.26-5.62-35.15-16.85-47.69-11.25-12.55-28.04-20.45-50.39-23.72 11.11-6.55 20.29-13.74 27.52-21.57s16.99-21.74 29.27-41.73l31.28-50.15h-61.31l-37.52,56.18c-13.36,19.88-22.51,32.42-27.43,37.59-4.923,5.18-10.138,8.73-15.646,10.65s-14.242,2.88-26.187,2.88h-10.547v-107.3h-52.082zm52.082,148.44h38.148c24.732,0 40.172,1.05 46.332,3.15 6.15,2.1 10.98,5.72 14.46,10.85 3.49,5.14 5.23,11.56 5.23,19.26 0,8.63-2.3,15.6-6.89,20.9-4.59,5.31-11.06,8.67-19.42,10.07-4.18.58-16.73.88-37.626.88h-40.234v-65.11" fill="#231f20"></path><path d="m1157.15,1125.46v256.78h50.23l106.55-172.94v172.94h47.91v-256.78h-51.82l-104.95,169.35v-169.35h-47.92" fill="#231f20"></path><path d="m1414.84,1125.46h52.0859v256.773h-52.0859v-256.773z" fill="#231f20"></path><path d="m1516.14,1125.46v256.78h50.22l106.55-172.94v172.94h47.91v-256.78h-51.82l-104.95,169.35v-169.35h-47.91" fill="#231f20"></path><path d="m1895.17,1219.74v43.22h111.46v-102.46c-10.86-10.5-26.59-19.74-47.2-27.73-20.61-8-41.48-11.99-62.61-11.99-26.86,0-50.27,5.65-70.23,16.95-19.97,11.29-34.96,27.44-45.01,48.45-10.04,21-15.06,43.86-15.06,68.55 0,26.8 5.61,50.62 16.83,71.45 11.21,20.84 27.63,36.81 49.26,47.93 16.47,8.54 36.98,12.82 61.52,12.82 31.91,0 56.82-6.65 74.76-19.93 17.93-13.29 29.47-31.64 34.61-55.07l-51.56-9.9c-3.62,12.55-10.42,22.46-20.39,29.73-9.98,7.26-22.43,10.9-37.35,10.9-22.65,0-40.64-7.21-53.99-21.64-13.36-14.41-20.04-35.81-20.04-64.18 0-30.6 6.77-53.54 20.32-68.84s31.31-22.95 53.26-22.95c10.86,0 21.76,2.13 32.68,6.41 10.92,4.29 20.28,9.47 28.12,15.58v32.7h-59.38" fill="#231f20"></path><path d="m264.91,598.508 35.156-10.938c-5.375-19.644-14.312-34.238-26.812-43.769-12.5-9.539-28.363-14.301-47.578-14.301-23.778,0-43.324,8.129-58.633,24.395s-22.965,38.503-22.965,66.722c0,29.84 7.692,53.016 23.078,69.528 15.391,16.515 35.621,24.773 60.703,24.773 21.899,0 39.688-6.473 53.368-19.406 8.14-7.645 14.246-18.625 18.32-32.942l-35.676-8.59c-2.121,9.25-6.543,16.555-13.269,21.907-6.731,5.359-14.903,8.039-24.52,8.039-13.297,0-24.078-4.766-32.355-14.301-8.274-9.535-12.411-24.977-12.411-46.32 0-22.653 4.067-38.785 12.204-48.395 8.132-9.617 18.71-14.422 31.73-14.422 9.598,0 17.855,3.059 24.773,9.164 6.915,6.114 11.875,15.735 14.887,28.856" fill="#231f20"></path><path d="m323.84,620.977c0,18.285 2.726,33.64 8.18,46.046 4.07,9.149 9.628,17.356 16.675,24.622 7.043,7.269 14.758,12.656 23.149,16.168 11.152,4.734 24.019,7.105 38.597,7.105 26.383,0 47.497-8.211 63.336-24.621s23.762-39.234 23.762-68.465c0-28.984-7.863-51.668-23.582-68.035-15.715-16.375-36.723-24.559-63.027-24.559-26.625,0-47.801,8.141-63.516,24.434-15.719,16.289-23.574,38.719-23.574,67.305zm37.238,1.222c0-20.332 4.688-35.746 14.067-46.238s21.289-15.731 35.726-15.731 26.281,5.204 35.539,15.61 13.887,26.027 13.887,46.848c0,20.57-4.508,35.925-13.524,46.05-9.011,10.121-20.976,15.188-35.902,15.188s-26.957-5.125-36.094-15.371c-9.132-10.246-13.699-25.7-13.699-46.356" fill="#231f20"></path><path d="m525.586,532.625v178.902h34.937l73.918-120.363v120.363h33.332v-178.902h-36.039l-72.812,118.066v-118.066h-33.336" fill="#231f20"></path><path d="m696.754,590.695 35.16,3.387c2.106-11.824 6.383-20.512 12.832-26.059 6.445-5.543 15.145-8.316 26.086-8.316 11.602,0 20.336,2.469 26.219,7.41s8.82,10.715 8.82,17.332c0,4.246-1.238,7.86-3.703,10.84-2.473,2.977-6.781,5.574-12.93,7.777-4.211,1.473-13.8,4.102-28.777,7.875-19.262,4.844-32.777,10.766-40.543,17.789-10.93,9.875-16.395,21.915-16.395,36.118 0,9.136 2.575,17.679 7.723,25.64 5.141,7.957 12.555,14.02 22.242,18.184 9.684,4.16 21.371,6.246 35.067,6.246 22.363,0 39.195-4.953 50.5-14.84 11.304-9.887 17.234-23.086 17.804-39.59l-36.195-1.3c-1.531,9.16-4.809,15.746-9.84,19.757s-12.566,6.02-22.621,6.02c-10.379,0-18.504-2.152-24.371-6.465-3.781-2.766-5.668-6.461-5.668-11.098 0-4.226 1.774-7.847 5.34-10.851 4.531-3.824 15.535-7.828 33.016-12.012s30.41-8.5 38.781-12.953c8.375-4.453 14.929-10.539 19.664-18.254 4.734-7.715 7.101-17.25 7.101-28.602 0-10.289-2.839-19.925-8.531-28.91s-13.738-15.66-24.14-20.031c-10.403-4.363-23.368-6.551-38.887-6.551-22.59,0-39.945,5.235-52.055,15.7-12.105,10.46-19.34,25.722-21.699,45.757" fill="#231f20"></path><path d="m913.504,532.625v148.695h-53.125v30.207h142.191v-30.207h-52.871v-148.695h-36.195" fill="#231f20"></path><path d="m1025.59,532.625v178.902h76.04c19.13,0 33.02-1.605 41.69-4.816 8.66-3.215 15.6-8.922 20.81-17.133s7.81-17.601 7.81-28.168c0-13.422-3.93-24.496-11.79-33.238s-19.61-14.25-35.26-16.527c7.79-4.559 14.22-9.567 19.29-15.02 5.07-5.457 11.9-15.145 20.5-29.07l21.84-34.93h-43.2l-25.96,39.039c-9.31,13.891-15.68,22.641-19.1,26.258-3.43,3.613-7.06,6.086-10.9,7.433-3.83,1.336-9.91,2.008-18.23,2.008h-7.34v-74.738h-36.2zm36.2,103.383h26.7c17.31,0 28.13.73 32.44,2.191 4.3,1.465 7.68,3.985 10.12,7.555 2.43,3.57 3.65,8.039 3.65,13.398 0,6.008-1.6,10.86-4.82,14.555-3.2,3.695-7.74,6.027-13.59,7.004-2.93.406-11.71.609-26.34.609h-28.16v-45.312" fill="#231f20"></path><path d="m1206.13,711.527h36.2v-97.035c0-15.402.44-25.383 1.33-29.941 1.54-7.336 5.2-13.223 10.99-17.664 5.78-4.442 13.7-6.657 23.74-6.657 10.19,0 17.88,2.094 23.06,6.29s8.3,9.351 9.35,15.46 1.58,16.258 1.58,30.434v99.113h36.2v-94.14c0-21.52-.98-36.719-2.93-45.602-1.95-8.89-5.54-16.39-10.78-22.496s-12.25-10.984-21.02-14.609c-8.78-3.625-20.23-5.442-34.36-5.442-17.06,0-30,1.977-38.81,5.93-8.82,3.953-15.79,9.09-20.9,15.402-5.12,6.317-8.49,12.942-10.12,19.871-2.36,10.27-3.53,25.426-3.53,45.481v95.605" fill="#231f20"></path><path d="m1501,598.508 35.15-10.938c-5.38-19.644-14.31-34.238-26.81-43.769-12.5-9.539-28.36-14.301-47.58-14.301-23.78,0-43.33,8.129-58.63,24.395-15.31,16.269-22.97,38.503-22.97,66.722 0,29.84 7.69,53.016 23.08,69.528 15.39,16.515 35.62,24.773 60.7,24.773 21.9,0 39.69-6.473 53.37-19.406 8.14-7.645 14.25-18.625 18.32-32.942l-35.68-8.59c-2.12,9.25-6.54,16.555-13.27,21.907-6.73,5.359-14.89,8.039-24.52,8.039-13.29,0-24.07-4.766-32.35-14.301-8.27-9.535-12.41-24.977-12.41-46.32 0-22.653 4.06-38.785 12.21-48.395 8.13-9.617 18.7-14.422 31.72-14.422 9.6,0 17.86,3.059 24.78,9.164 6.91,6.114 11.87,15.735 14.89,28.856" fill="#231f20"></path><path d="m1607.84,532.625v148.695h-53.13v30.207h142.19v-30.207h-52.86v-148.695h-36.2" fill="#231f20"></path><path d="m1718.88,532.625h36.1953v178.902h-36.1953v-178.902z" fill="#231f20"></path><path d="m1782.09,620.977c0,18.285 2.73,33.64 8.18,46.046 4.07,9.149 9.63,17.356 16.68,24.622 7.04,7.269 14.75,12.656 23.15,16.168 11.15,4.734 24.02,7.105 38.6,7.105 26.38,0 47.49-8.211 63.33-24.621s23.76-39.234 23.76-68.465c0-28.984-7.86-51.668-23.58-68.035-15.72-16.375-36.72-24.559-63.03-24.559-26.63,0-47.8,8.141-63.51,24.434-15.72,16.289-23.58,38.719-23.58,67.305zm37.24,1.222c0-20.332 4.69-35.746 14.06-46.238 9.38-10.488 21.3-15.731 35.73-15.731 14.44,0 26.28,5.204 35.54,15.61s13.89,26.027 13.89,46.848c0,20.57-4.51,35.925-13.52,46.05-9.02,10.121-20.98,15.188-35.91,15.188-14.92,0-26.95-5.125-36.09-15.371s-13.7-25.7-13.7-46.356" fill="#231f20"></path><path d="m1983.84,532.625v178.902h34.93l73.93-120.363v120.363h33.33v-178.902h-36.05l-72.8,118.066v-118.066h-33.34" fill="#231f20"></path><path d="m964.758,195.141h-38.985l-15.472,40.625h-72.074l-14.825-40.625h-38.332l69.438,178.906h38.176l72.074-178.906zm-66.254,70.836-25.024,66.402-24.226-66.402h49.25" fill="#231f20"></path><path d="m983.84,195.141v178.906h76.05c19.12,0 33.01-1.609 41.68-4.817 8.67-3.218 15.61-8.925 20.81-17.14 5.21-8.207 7.82-17.598 7.82-28.164 0-13.422-3.94-24.496-11.8-33.238s-19.61-14.25-35.25-16.524c7.78-4.559 14.21-9.574 19.28-15.023 5.07-5.457 11.9-15.145 20.5-29.071l21.85-34.929h-43.21l-25.96,39.039c-9.31,13.89-15.68,22.64-19.1,26.254-3.43,3.617-7.06,6.089-10.89,7.437-3.83,1.336-9.92,2.008-18.24,2.008h-7.34v-74.738h-36.2zm36.2,103.382h26.7c17.32,0 28.13.731 32.44,2.192 4.3,1.465 7.68,3.98 10.12,7.555 2.43,3.57 3.65,8.039 3.65,13.402 0,6.004-1.6,10.855-4.81,14.555-3.21,3.695-7.75,6.023-13.6,7.003-2.93.403-11.7.606-26.34.606h-28.16v-45.313" fill="#231f20"></path><path d="m1164.38,195.141v178.906h132.55v-30.211h-96.35v-39.582h89.58v-30.207h-89.58v-48.695h99.74v-30.211h-135.94" fill="#231f20"></path><path d="m1492.59,195.141h-38.98l-15.48,40.625h-72.07l-14.83-40.625h-38.33l69.44,178.906h38.17l72.08-178.906zm-66.25,70.836-25.03,66.402-24.23-66.402h49.26" fill="#231f20"></path></g></g></g></svg>
