<?xml version="1.0" encoding="UTF-8"?>
<!DOCTYPE svg PUBLIC "-//W3C//DTD SVG 1.1//EN" "http://www.w3.org/Graphics/SVG/1.1/DTD/svg11.dtd">
<svg version="1.1" xmlns="http://www.w3.org/2000/svg" xmlns:xlink="http://www.w3.org/1999/xlink" x="0" y="0" width="512" height="256" viewBox="0, 0, 512, 256">
  <g id="Background">
    <rect x="0" y="0" width="512" height="256" fill="#000000" fill-opacity="0"/>
  </g>
  <g id="Background"/>
  <g id="Layer_1">
    <g>
      <g id="_642185552">
        <path d="M182.921,41.682 L290.748,41.682 L335.348,90.602 L335.348,249.012 C335.348,252.954 332.482,256 328.9,256 L182.921,256 C179.518,256 176.652,252.954 176.652,249.012 L176.652,48.67 C176.652,44.907 179.518,41.682 182.921,41.682 z" fill="#DDDDDD"/>
        <path d="M335.348,90.602 L297.196,90.602 C293.614,90.602 290.748,87.377 290.748,83.614 L290.748,41.682 L335.348,90.602 z" fill="#CBCBCB"/>
      </g>
      <g>
        <path d="M230.267,117.664 C255.361,103.176 287.448,111.774 301.936,136.867 C316.424,161.961 307.826,194.048 282.733,208.536 C257.639,223.024 225.552,214.426 211.064,189.332 C196.576,164.239 205.174,132.152 230.267,117.664 z" fill-opacity="0" stroke="#000000" stroke-width="3.477" id="path2985"/>
        <path d="M252.149,136.064 L259.851,136.064 C260.21,136.064 260.502,136.355 260.502,136.715 L260.502,188.485 C260.502,188.845 260.21,189.136 259.851,189.136 L252.149,189.136 C251.79,189.136 251.498,188.845 251.498,188.485 L251.498,136.715 C251.498,136.355 251.79,136.064 252.149,136.064 z" fill="#000000" id="rect3634"/>
        <path d="M282.536,158.749 L282.536,166.451 C282.536,166.81 282.245,167.101 281.885,167.101 L230.115,167.101 C229.755,167.101 229.464,166.81 229.464,166.451 L229.464,158.749 C229.464,158.389 229.755,158.098 230.115,158.098 L281.885,158.098 C282.245,158.098 282.536,158.389 282.536,158.749 z" fill="#000000" id="rect3636"/>
      </g>
    </g>
  </g>
</svg>
