<?xml version="1.0" encoding="UTF-8"?>
<!DOCTYPE svg PUBLIC "-//W3C//DTD SVG 1.1//EN" "http://www.w3.org/Graphics/SVG/1.1/DTD/svg11.dtd">
<svg version="1.1" xmlns="http://www.w3.org/2000/svg" xmlns:xlink="http://www.w3.org/1999/xlink" x="0" y="0" width="512" height="512" viewBox="0, 0, 512, 512">
  <g id="Background">
    <rect x="0" y="0" width="512" height="512" fill="#000000" fill-opacity="0"/>
  </g>
  <defs>
    <linearGradient id="Gradient_1" gradientUnits="userSpaceOnUse" x1="247.43" y1="0.026" x2="247.43" y2="492.036">
      <stop offset="0" stop-color="#AAD400"/>
      <stop offset="1" stop-color="#006E10"/>
    </linearGradient>
    <linearGradient id="Gradient_2" gradientUnits="userSpaceOnUse" x1="204.452" y1="181.189" x2="431.052" y2="149.172">
      <stop offset="0" stop-color="#FFFFFF"/>
      <stop offset="1" stop-color="#000000"/>
    </linearGradient>
    <linearGradient id="Gradient_3" gradientUnits="userSpaceOnUse" x1="27.385" y1="487.839" x2="283.036" y2="299.812">
      <stop offset="0" stop-color="#FFFFFF"/>
      <stop offset="1" stop-color="#000000"/>
    </linearGradient>
  </defs>
  <g id="Background"/>
  <g id="Layer_1">
    <path d="M256,512 C114.615,512 0,397.385 0,256 C0,114.615 114.615,0 256,0 C397.385,0 512,114.615 512,256 C512,397.385 397.385,512 256,512 z" fill="url(#Gradient_1)"/>
    <g>
      <g>
        <path d="M387.17,63.203 C367.037,76.655 348.94,93.188 330.365,108.595 C328.414,110.214 327.815,112.474 328.933,114.065 C333.135,120.043 335.195,123.017 339.252,128.942 C334.377,124.429 331.927,122.169 326.997,117.635 C325.065,115.86 321.136,116.195 318.541,118.327 C316.946,119.637 315.342,120.955 313.728,122.276 C311.79,123.866 311.185,126.005 312.255,127.51 C316.284,133.197 318.273,136.03 322.209,141.68 C317.557,137.496 315.225,135.401 310.541,131.207 C308.589,129.457 304.473,129.832 301.821,132.007 C277.937,151.609 253.777,171.144 232.564,193.773 C232.48,195.546 232.423,196.821 232.349,198.599 C240.255,205.365 244.221,208.754 252.202,215.547 C243.764,210.884 239.548,208.554 231.126,203.898 C228.535,202.465 224.06,203.579 222.032,206.211 C220.918,207.658 219.865,209.076 218.871,210.473 C217.513,212.383 217.903,214.431 219.789,215.444 C229.464,220.631 234.307,223.227 244.004,228.422 C234.126,225.143 229.188,223.503 219.313,220.222 C216.363,219.243 212.257,220.855 210.873,223.544 C197.696,249.175 207.462,274.151 216.463,299.175 C243.14,235.95 294.026,191.73 339.139,141.669 C296.145,192.019 248.318,236.722 223.026,299.051 C243.712,287.061 265.516,276.821 284.246,261.855 C287.39,259.342 286.942,255.526 283.309,254.682 C274.365,252.606 269.894,251.568 260.958,249.495 C274.856,249.169 281.855,249.023 295.932,248.762 C297.935,248.725 300.002,247.842 301.399,246.467 C307.264,240.695 313.48,234.109 320.298,226.44 C329.554,216.03 339.537,204.127 349.121,191.423 C351.101,188.797 349.53,186.202 345.882,186.106 C337.873,185.897 333.866,185.791 325.853,185.58 C335.928,184.762 340.965,184.353 351.023,183.53 C353.52,183.326 356.022,182.029 357.249,180.278 C364.107,170.496 370.475,160.347 375.777,150.071 C377.034,147.63 375.437,145.396 372.339,145.17 C366.607,144.752 363.739,144.541 357.995,144.119 C365.506,142.742 369.241,142.045 376.664,140.636 C379.068,140.179 381.198,138.641 381.971,136.82 C391.685,113.947 395.858,87.183 387.17,63.203 z" fill="url(#Gradient_2)"/>
        <path d="M288.769,284.135 C293.519,284.135 297.367,287.984 297.367,292.733 C297.367,297.483 293.519,301.331 288.769,301.331 L285.719,301.331 C286.361,347.002 368.31,398.22 285.719,448.797 L156.944,448.797 C74.355,398.22 156.304,347.002 156.944,301.331 L153.894,301.331 C149.147,301.331 145.296,297.483 145.296,292.733 C145.296,287.984 149.147,284.135 153.894,284.135 L288.769,284.135 z" fill="url(#Gradient_3)"/>
      </g>
      <g id="Page-1">
        <path d="M189.955,333.533 C189.041,333.076 177.438,342.667 177.438,349.723 C177.422,359.367 190.972,381.216 193.254,389.667 C195.218,396.916 189.923,405.615 191.379,406.01 C192.708,406.864 205.349,394.062 205.842,388.603 C206.476,379.912 191.08,354.568 189.853,348.024 C188.43,340.386 190.98,333.703 189.955,333.533 L189.955,333.533 z" fill="#1A5099" id="Fill-1"/>
        <path d="M218.916,323.555 C217.751,322.973 202.95,335.192 202.95,344.201 C202.933,356.499 220.213,384.364 223.121,395.131 C225.623,404.375 218.876,415.47 220.721,415.966 C222.427,417.05 238.539,400.739 239.174,393.768 C239.986,382.689 220.345,350.374 218.782,342.016 C216.968,332.3 220.213,323.771 218.916,323.555 L218.916,323.555 z" fill="#4BA2F2" id="Fill-2"/>
        <path d="M248.805,333.533 C247.898,333.076 236.287,342.667 236.287,349.723 C236.273,359.367 249.822,381.216 252.105,389.667 C254.067,396.916 248.775,405.615 250.228,406.01 C251.565,406.864 264.209,394.062 264.693,388.603 C265.326,379.912 249.932,354.568 248.703,348.024 C247.282,340.386 249.83,333.703 248.805,333.533 L248.805,333.533 z" fill="#1A5099" id="Fill-3"/>
      </g>
    </g>
  </g>
</svg>
