<?xml version="1.0" encoding="UTF-8"?>
<!DOCTYPE svg PUBLIC "-//W3C//DTD SVG 1.1//EN" "http://www.w3.org/Graphics/SVG/1.1/DTD/svg11.dtd">
<svg version="1.1" xmlns="http://www.w3.org/2000/svg" xmlns:xlink="http://www.w3.org/1999/xlink" x="0" y="0" width="160" height="215" viewBox="0, 0, 160, 215">
  <g id="Background">
    <rect x="0" y="0" width="160" height="215" fill="#000000" fill-opacity="0"/>
  </g>
  <g id="Background"/>
  <g id="Layer_1">
    <g>
      <g id="_642185552">
        <path d="M6.321,0 L115.034,0 L160,49.076 L160,207.99 C160,211.944 157.11,215 153.499,215 L6.321,215 C2.89,215 -0,211.944 -0,207.99 L-0,7.01 C-0,3.235 2.89,0 6.321,0 z" fill="#DDDDDD"/>
        <path d="M160,49.076 L121.534,49.076 C117.923,49.076 115.034,45.84 115.034,42.065 L115.034,0 L160,49.076 z" fill="#CBCBCB"/>
      </g>
      <g>
        <path d="M54.056,76.224 C79.356,61.69 111.706,70.315 126.313,95.488 C140.921,120.662 132.252,152.851 106.953,167.385 C81.652,181.919 49.302,173.294 34.695,148.12 C20.088,122.947 28.756,90.758 54.056,76.224 z" fill-opacity="0" stroke="#000000" stroke-width="3.477" id="path2985"/>
        <path d="M76.117,94.682 L83.883,94.682 C84.245,94.682 84.539,94.974 84.539,95.335 L84.539,147.27 C84.539,147.631 84.245,147.923 83.883,147.923 L76.117,147.923 C75.755,147.923 75.461,147.631 75.461,147.27 L75.461,95.335 C75.461,94.974 75.755,94.682 76.117,94.682 z" fill="#000000" id="rect3634"/>
        <path d="M106.754,117.44 L106.754,125.166 C106.754,125.526 106.461,125.818 106.098,125.818 L53.902,125.818 C53.539,125.818 53.246,125.526 53.246,125.166 L53.246,117.44 C53.246,117.078 53.539,116.786 53.902,116.786 L106.098,116.786 C106.461,116.786 106.754,117.078 106.754,117.44 z" fill="#000000" id="rect3636"/>
      </g>
    </g>
  </g>
</svg>
